<svg xmlns="http://www.w3.org/2000/svg" viewBox="0 0 360 360"><defs><style>.cls-1{fill:#2d41f0;}.cls-2{fill:#fff;}</style></defs><g id="Layer_2" data-name="Layer 2"><g id="Logo_Small" data-name="Logo Small"><rect class="cls-1" width="360" height="360" rx="32"/><path class="cls-2" d="M84.19434,131.72217h44.6875V93.69482q-18.90821.86133-37.59766,1.50391-1.71972-6.44531-3.4375-13.10547,42.1084,0,88.30078-3.86719l3.4375,12.67579q-18.69141,1.28905-37.38281,2.14843v38.67188h42.10937v12.46094H142.20215v10.52734l5.15625-5.80078q27.07031,13.96581,41.89453,22.77344l-7.73438,10.957q-16.75781-10.74024-39.3164-23.20313v23.63281H128.88184V151.70264q-15.041,17.40234-41.67969,32.87109a113.97777,113.97777,0,0,0-9.23828-12.03125q26.42577-10.957,44.47265-28.35937H84.19434Zm6.66015-25.9961,10.3125-7.08984a236.453,236.453,0,0,1,17.61719,21.91406l-11.38672,8.16407A234.936,234.936,0,0,0,90.85449,105.72607Zm1.71875,80.78125h85.9375v92.813H165.19043v-9.668H105.89355v9.668H92.57324ZM105.89355,221.957h23.418V199.39844h-23.418Zm0,34.80469h23.418V233.98828h-23.418Zm59.29688-57.36328H141.55762V221.957h23.63281Zm-23.63281,57.36328h23.63281V233.98828H141.55762Zm10.09765-136.856A229.75555,229.75555,0,0,0,171.4209,97.34717l10.52734,8.3789a287.327,287.327,0,0,1-20.19531,22.5586A108.40442,108.40442,0,0,0,151.65527,119.90576Zm64.668-19.76562h-29.0039V85.53076h42.7539V254.39844q0,23.63085-22.55859,23.63281-9.02344,0-19.1211-.42969-.86131-6.876-2.36328-15.68359a87.63788,87.63788,0,0,0,19.76563,1.71875q10.52637,0,10.52734-11.60156V200.25781q-12.24609,12.03224-24.707,23.63282-5.373-5.80078-9.88281-10.74219,15.46875-13.10449,34.58984-31.15283ZM186.46,124.63232l11.38672-2.793q6.65918,23.63378,12.24609,45.97656l-12.03125,3.4375Q192.26075,144.61377,186.46,124.63232Zm80.99609-24.49218H235.874V85.53076h45.76172V255.25781q0,22.77246-23.63281,22.77344-9.24024,0-19.55078-.42969-.86133-6.876-2.36328-15.46875a137.21969,137.21969,0,0,0,20.19531,1.71875q11.17091,0,11.17187-12.24609V194.67188q-9.24023,10.09863-23.63281,25.35156-5.80078-5.80078-10.3125-10.09766,18.26075-17.40234,33.94531-33.51611ZM238.2373,122.69873l11.38672-3.00781q6.22852,21.91405,11.17188,44.25781l-12.67578,3.65234Q244.25293,144.82861,238.2373,122.69873Z"/></g></g></svg>