<svg xmlns="http://www.w3.org/2000/svg" viewBox="0 0 745.33333 740"><defs><style>.cls-1{fill:#2d41f0;}.cls-2,.cls-3,.cls-7{fill:#fff;}.cls-3,.cls-7{font-size:160px;font-family:MicrosoftYaHeiUI, Microsoft YaHei UI;}.cls-3{letter-spacing:0.064em;}.cls-4{letter-spacing:0.02em;}.cls-5{fill:none;stroke:#fff;stroke-miterlimit:10;stroke-width:2px;}.cls-6{fill:#666;}.cls-7{letter-spacing:0.02em;}</style></defs><g id="Layer_2" data-name="Layer 2"><g id="Full_Logo" data-name="Full Logo"><rect class="cls-1" width="745.33333" height="360" rx="32"/><path class="cls-2" d="M459.97135,131.61133h44.6875V93.584q-18.90819.86133-37.59765,1.50391-1.71973-6.44531-3.4375-13.10547,42.10839,0,88.30078-3.86719L555.362,90.791q-18.69141,1.28905-37.38281,2.14843v38.67188h42.10937v12.46094H517.97917v10.52734l5.15625-5.80078q27.07031,13.96582,41.89453,22.77344l-7.73438,10.957q-16.7578-10.74024-39.3164-23.20313V182.959H504.65885V151.5918q-15.041,17.40234-41.67968,32.87109a113.97777,113.97777,0,0,0-9.23828-12.03125q26.42577-10.957,44.47265-28.35937H459.97135Zm6.66016-25.9961,10.3125-7.08984a236.456,236.456,0,0,1,17.61719,21.91406l-11.38672,8.16407A234.936,234.936,0,0,0,466.63151,105.61523Zm1.71875,80.78125h85.9375V279.209H540.96745v-9.668H481.67057v9.668H468.35026Zm13.32031,35.44922h23.418V199.28711h-23.418Zm0,34.80469h23.418V233.877h-23.418Zm59.29688-57.36328H517.33464V221.8457h23.63281Zm-23.63281,57.36328h23.63281V233.877H517.33464Zm10.09765-136.85547a229.75555,229.75555,0,0,0,19.76563-22.55859l10.52734,8.3789A287.327,287.327,0,0,1,537.53,128.17383,108.40731,108.40731,0,0,0,527.43229,119.79492Zm64.668-19.76562H563.09635V85.41992h42.75391V254.28711q0,23.63087-22.55859,23.63281-9.02344,0-19.1211-.42969-.86133-6.876-2.36328-15.68359a87.63783,87.63783,0,0,0,19.76563,1.71875q10.52636,0,10.52734-11.60156V200.14648q-12.24609,12.03224-24.707,23.63282-5.373-5.80078-9.88281-10.74219,15.46875-13.1045,34.58984-31.15234ZM562.237,124.52148l11.38672-2.793q6.65917,23.63379,12.24609,45.97656l-12.03125,3.4375Q568.03776,144.50293,562.237,124.52148Zm80.99609-24.49218H611.651V85.41992h45.76172V255.14648q0,22.77247-23.63281,22.77344-9.24024,0-19.55078-.42969-.86133-6.876-2.36328-15.46875a137.21832,137.21832,0,0,0,20.19531,1.71875q11.17089,0,11.17187-12.24609V194.56055q-9.24023,10.09863-23.63281,25.35156-5.80079-5.80079-10.3125-10.09766,18.26074-17.40234,33.94531-33.51562Zm-29.21875,22.55859,11.38672-3.00781q6.22853,21.91406,11.17188,44.25781l-12.67578,3.65234Q620.02995,144.71777,614.01432,122.58789Z"/><text class="cls-3" transform="translate(64.02962 240.20504)">f<tspan class="cls-4" x="65.70898" y="0">ān</tspan></text><line class="cls-5" x1="372.66667" y1="36.58961" x2="372.66667" y2="332.58961"/><rect class="cls-6" y="380" width="745.33333" height="360" rx="32"/><path class="cls-2" d="M139.425,617.70313q.21387,8.165,1.5039,18.47656a331.62858,331.62858,0,0,0-35.23437,24.49219l-9.88281-13.75q7.30371-6.66211,7.30468-18.90625V543.79688H76.90544V528.32813H119.4445V631.88281Q128.25114,625.86817,139.425,617.70313ZM101.82731,458.50391q17.61621,17.61913,33.51563,35.23437l-14.82422,12.46094q-14.61036-18.47462-31.79688-37.168Zm46.40625,20.19531V464.08984H276.49528v14.39454q-14.93262,25.35351-45.43945,43.82812,25.24218,10.957,60.04882,14.39453-4.72851,8.165-9.02343,16.75781-40.17774-6.76756-67.89063-21.91406-29.64843,14.39649-70.68359,23.84766a138.06151,138.06151,0,0,0-9.23828-16.11328q36.84375-5.37012,64.668-17.29493-24.16994-17.50781-35.98633-43.291Zm-3.4375,130.625h61.44531V583.11328H153.8195V568.50391h52.42187v-22.5586H222.5695v22.5586h57.793v14.60937h-57.793v26.21094h67.89062v14.60937H222.5695v41.25H206.24137v-41.25H144.79606Zm112.57813-130.625H180.03044q12.46,21.59179,35.12695,35.44922Q241.04411,499.86328,257.37419,478.69922Z"/><text class="cls-7" transform="translate(500.10026 620.20502)">yì</text><line class="cls-5" x1="372.66667" y1="412" x2="372.66667" y2="708"/></g></g></svg>